#define 7seg-4-50_width 50
#define 7seg-4-50_height 110
static char 7seg-4-50_bits[] = {
  0x00, 0x00, 0x00, 0x00, 0x00, 0x00, 0x00, 0x00, 0x00, 0x00, 0x00, 0x00, 
  0x00, 0x00, 0x00, 0x00, 0x00, 0x00, 0x00, 0x00, 0x00, 0x00, 0x00, 0x00, 
  0x00, 0x00, 0x00, 0x00, 0x00, 0x00, 0x00, 0x00, 0x00, 0x00, 0x00, 0x00, 
  0x00, 0x00, 0x00, 0x00, 0x00, 0x00, 0x00, 0x00, 0x00, 0x00, 0x00, 0x00, 
  0x00, 0x00, 0x00, 0x00, 0x00, 0x00, 0x00, 0x00, 0x00, 0x00, 0x00, 0x00, 
  0x00, 0x00, 0x00, 0x00, 0x00, 0x00, 0x00, 0x00, 0x00, 0x00, 0x00, 0x00, 
  0x00, 0x00, 0x00, 0x00, 0x00, 0x00, 0x00, 0x00, 0x00, 0x00, 0x30, 0x00, 
  0x00, 0x00, 0x00, 0x00, 0x00, 0x70, 0x00, 0x00, 0x00, 0x00, 0x00, 0x00, 
  0xF8, 0x00, 0x00, 0x08, 0x00, 0x00, 0x00, 0xF8, 0x01, 0x00, 0x1C, 0x00, 
  0x00, 0x00, 0xFC, 0x01, 0x00, 0x3E, 0x00, 0x00, 0x00, 0xFC, 0x03, 0x00, 
  0x7E, 0x00, 0x00, 0x00, 0xFC, 0x03, 0x00, 0xFE, 0x00, 0x00, 0x00, 0xFE, 
  0x03, 0x00, 0xFE, 0x01, 0x00, 0x00, 0xFE, 0x03, 0x00, 0xFF, 0x03, 0x00, 
  0x00, 0xFF, 0x03, 0x00, 0xFE, 0x07, 0x00, 0x00, 0xFF, 0x03, 0x00, 0xFE, 
  0x03, 0x00, 0x00, 0xFF, 0x03, 0x00, 0xFF, 0x07, 0x00, 0x00, 0xFF, 0x03, 
  0x00, 0xFF, 0x03, 0x00, 0x00, 0xFF, 0x01, 0x00, 0xFE, 0x07, 0x00, 0x80, 
  0xFF, 0x03, 0x00, 0xFF, 0x03, 0x00, 0x00, 0xFF, 0x03, 0x00, 0xFF, 0x03, 
  0x00, 0x80, 0xFF, 0x01, 0x00, 0xFF, 0x03, 0x00, 0x80, 0xFF, 0x01, 0x00, 
  0xFE, 0x03, 0x00, 0x00, 0xFF, 0x03, 0x00, 0xFF, 0x03, 0x00, 0x80, 0xFF, 
  0x03, 0x00, 0xFF, 0x03, 0x00, 0x80, 0xFF, 0x01, 0x00, 0xFF, 0x03, 0x00, 
  0x80, 0xFF, 0x01, 0x00, 0xFF, 0x03, 0x00, 0x80, 0xFF, 0x01, 0x00, 0xFF, 
  0x03, 0x00, 0x80, 0xFF, 0x01, 0x00, 0xFF, 0x03, 0x00, 0x80, 0xFF, 0x01, 
  0x80, 0xFF, 0x03, 0x00, 0x80, 0xFF, 0x01, 0x00, 0xFF, 0x01, 0x00, 0x80, 
  0xFF, 0x01, 0x00, 0xFF, 0x03, 0x00, 0x80, 0xFF, 0x01, 0x80, 0xFF, 0x01, 
  0x00, 0x80, 0xFF, 0x01, 0x80, 0xFF, 0x01, 0x00, 0x80, 0xFF, 0x01, 0x00, 
  0xFF, 0x03, 0x00, 0xC0, 0xFF, 0x00, 0x80, 0xFF, 0x01, 0x00, 0x80, 0xFF, 
  0x01, 0x80, 0xFF, 0x01, 0x00, 0xC0, 0xFF, 0x00, 0x80, 0xFF, 0x00, 0x00, 
  0x80, 0xFF, 0x01, 0x80, 0x7F, 0xFC, 0xFF, 0x3F, 0xFE, 0x00, 0x00, 0x1F, 
  0xFF, 0xFF, 0x7F, 0xFC, 0x00, 0x00, 0x8E, 0xFF, 0xFF, 0xFF, 0x38, 0x00, 
  0x00, 0xC0, 0xFF, 0xFF, 0xFF, 0x01, 0x00, 0x00, 0xF0, 0xFF, 0xFF, 0xFF, 
  0x07, 0x00, 0x00, 0xF0, 0xFF, 0xFF, 0xFF, 0x07, 0x00, 0x00, 0xC0, 0xFF, 
  0xFF, 0xFF, 0x11, 0x00, 0x00, 0x80, 0xFF, 0xFF, 0xFF, 0x38, 0x00, 0x00, 
  0x00, 0xFF, 0xFF, 0x3F, 0x7E, 0x00, 0x00, 0x00, 0xFE, 0xFF, 0x1F, 0xFF, 
  0x00, 0x00, 0x00, 0x00, 0x00, 0x80, 0x7F, 0x00, 0x00, 0x00, 0x00, 0x00, 
  0xC0, 0xFF, 0x00, 0x00, 0x00, 0x00, 0x00, 0xC0, 0xFF, 0x00, 0x00, 0x00, 
  0x00, 0x00, 0xC0, 0x7F, 0x00, 0x00, 0x00, 0x00, 0x00, 0xE0, 0xFF, 0x00, 
  0x00, 0x00, 0x00, 0x00, 0xC0, 0x7F, 0x00, 0x00, 0x00, 0x00, 0x00, 0xE0, 
  0xFF, 0x00, 0x00, 0x00, 0x00, 0x00, 0xE0, 0x7F, 0x00, 0x00, 0x00, 0x00, 
  0x00, 0xE0, 0x7F, 0x00, 0x00, 0x00, 0x00, 0x00, 0xE0, 0x7F, 0x00, 0x00, 
  0x00, 0x00, 0x00, 0xE0, 0x7F, 0x00, 0x00, 0x00, 0x00, 0x00, 0xE0, 0x7F, 
  0x00, 0x00, 0x00, 0x00, 0x00, 0xE0, 0x7F, 0x00, 0x00, 0x00, 0x00, 0x00, 
  0xE0, 0x7F, 0x00, 0x00, 0x00, 0x00, 0x00, 0xE0, 0x7F, 0x00, 0x00, 0x00, 
  0x00, 0x00, 0xF0, 0x7F, 0x00, 0x00, 0x00, 0x00, 0x00, 0xE0, 0x7F, 0x00, 
  0x00, 0x00, 0x00, 0x00, 0xE0, 0x7F, 0x00, 0x00, 0x00, 0x00, 0x00, 0xF0, 
  0x3F, 0x00, 0x00, 0x00, 0x00, 0x00, 0xE0, 0x7F, 0x00, 0x00, 0x00, 0x00, 
  0x00, 0xF0, 0x3F, 0x00, 0x00, 0x00, 0x00, 0x00, 0xF0, 0x3F, 0x00, 0x00, 
  0x00, 0x00, 0x00, 0xF0, 0x7F, 0x00, 0x00, 0x00, 0x00, 0x00, 0xE0, 0x3F, 
  0x00, 0x00, 0x00, 0x00, 0x00, 0xF0, 0x7F, 0x00, 0x00, 0x00, 0x00, 0x00, 
  0xE0, 0x3F, 0x00, 0x00, 0x00, 0x00, 0x00, 0xE0, 0x3F, 0x00, 0x00, 0x00, 
  0x00, 0x00, 0xE0, 0x3F, 0x00, 0x00, 0x00, 0x00, 0x00, 0xC0, 0x1F, 0x00, 
  0x00, 0x00, 0x00, 0x00, 0xC0, 0x1F, 0x00, 0x00, 0x00, 0x00, 0x00, 0xC0, 
  0x1F, 0x00, 0x00, 0x00, 0x00, 0x00, 0x80, 0x07, 0x00, 0x00, 0x00, 0x00, 
  0x00, 0x80, 0x07, 0x00, 0x00, 0x00, 0x00, 0x00, 0x80, 0x01, 0x00, 0x00, 
  0x00, 0x00, 0x00, 0x00, 0x00, 0x00, 0x00, 0x00, 0x00, 0x00, 0x00, 0x00, 
  0x00, 0x00, 0x00, 0x00, 0x00, 0x00, 0x00, 0x00, 0x00, 0x00, 0x00, 0x00, 
  0x00, 0x00, 0x00, 0x00, 0x00, 0x00, 0x00, 0x00, 0x00, 0x00, 0x00, 0x00, 
  0x00, 0x00, 0x00, 0x00, 0x00, 0x00, 0x00, 0x00, 0x00, 0x00, 0x00, 0x00, 
  0x00, 0x00, 0x00, 0x00, 0x00, 0x00, 0x00, 0x00, 0x00, 0x00, 0x00, 0x00, 
  0x00, 0x00, 0x00, 0x00, 0x00, 0x00, 0x00, 0x00, 0x00, 0x00, 0x00, 0x00, 
  0x00, 0x00, 0x00, 0x00, 0x00, 0x00, 0x00, 0x00, 0x00, 0x00, 0x00, 0x00, 
  0x00, 0x00, 0x00, 0x00, 0x00, 0x00, 0x00, 0x00, 0x00, 0x00, 0x00, 0x00, 
  0x00, 0x00, 0x00, 0x00, 0x00, 0x00, 0x00, 0x00, 0x00, 0x00, 0x00, 0x00, 
  0x00, 0x00, 0x00, 0x00, 0x00, 0x00, 0x00, 0x00, 0x00, 0x00, 0x00, 0x00, 
  0x00, 0x00, 0x00, 0x00, 0x00, 0x00, 0x00, 0x00, 0x00, 0x00, 0x00, 0x00, 
  0x00, 0x00, 0x00, 0x00, 0x00, 0x00, 0x00, 0x00, 0x00, 0x00, 0x00, 0x00, 
  0x00, 0x00, };
