#define dseg-0-50_width 50
#define dseg-0-50_height 67
static char dseg-0-50_bits[] = {
  0x00, 0x00, 0x00, 0x00, 0x00, 0x00, 0x00, 0x00, 0x00, 0x00, 0x00, 0x00, 
  0x00, 0x00, 0x00, 0x00, 0x00, 0x00, 0x00, 0x00, 0x00, 0x00, 0xF0, 0xFF, 
  0xFF, 0xFF, 0x07, 0x00, 0x00, 0xE0, 0xFF, 0xFF, 0xFF, 0x03, 0x00, 0x00, 
  0x80, 0xFF, 0xFF, 0xFF, 0x03, 0x00, 0x00, 0x02, 0xFE, 0xFF, 0xFF, 0x21, 
  0x00, 0x00, 0x07, 0xFC, 0xFF, 0xFF, 0x21, 0x00, 0x00, 0x1F, 0xF0, 0xFF, 
  0xFF, 0x30, 0x00, 0x00, 0x3F, 0xC0, 0xFF, 0x7F, 0x38, 0x00, 0x00, 0xFE, 
  0x00, 0xAA, 0x29, 0x38, 0x00, 0x00, 0x7F, 0x00, 0x00, 0x00, 0x3C, 0x00, 
  0x00, 0xFF, 0x00, 0x00, 0x00, 0x3E, 0x00, 0x00, 0x7F, 0x00, 0x00, 0x00, 
  0x3E, 0x00, 0x80, 0x7F, 0x00, 0x00, 0x00, 0x3F, 0x00, 0x00, 0x7F, 0x00, 
  0x00, 0x80, 0x1F, 0x00, 0x00, 0x7F, 0x00, 0x00, 0x80, 0x3F, 0x00, 0x80, 
  0x7F, 0x00, 0x00, 0xC0, 0x1F, 0x00, 0x80, 0x7F, 0x00, 0x00, 0xC0, 0x1F, 
  0x00, 0x00, 0x7F, 0x00, 0x00, 0xE0, 0x1F, 0x00, 0x80, 0x7F, 0x00, 0x00, 
  0xE0, 0x1F, 0x00, 0x80, 0x7F, 0x00, 0x00, 0xC0, 0x1F, 0x00, 0x80, 0x7F, 
  0x00, 0x00, 0xE0, 0x1F, 0x00, 0x80, 0x3F, 0x00, 0x00, 0xE0, 0x1F, 0x00, 
  0x80, 0x3F, 0x00, 0x00, 0xE0, 0x1F, 0x00, 0x80, 0x7F, 0x00, 0x00, 0xC0, 
  0x1F, 0x00, 0x80, 0x3F, 0x00, 0x00, 0x80, 0x0F, 0x00, 0x80, 0x3F, 0x00, 
  0x00, 0x00, 0x0E, 0x00, 0xC0, 0x3F, 0x00, 0x00, 0x00, 0x0C, 0x00, 0x80, 
  0x3F, 0x00, 0x00, 0x00, 0x00, 0x00, 0xC0, 0x1F, 0x00, 0x00, 0x00, 0x00, 
  0x00, 0xC0, 0x1F, 0x00, 0x00, 0x00, 0x00, 0x00, 0xC0, 0x0F, 0x00, 0x00, 
  0x80, 0x01, 0x00, 0x80, 0x07, 0x00, 0x00, 0x80, 0x07, 0x00, 0x00, 0x06, 
  0x00, 0x00, 0xC0, 0x0F, 0x00, 0x00, 0x00, 0x00, 0x00, 0xE0, 0x0F, 0x00, 
  0x00, 0x00, 0x00, 0x00, 0xE0, 0x07, 0x00, 0x40, 0x00, 0x00, 0x00, 0xF0, 
  0x0F, 0x00, 0xC0, 0x00, 0x00, 0x00, 0xF0, 0x0F, 0x00, 0xC0, 0x01, 0x00, 
  0x00, 0xF0, 0x07, 0x00, 0xC0, 0x07, 0x00, 0x00, 0xF0, 0x07, 0x00, 0xE0, 
  0x1F, 0x00, 0x00, 0xF0, 0x07, 0x00, 0xE0, 0x1F, 0x00, 0x00, 0xF8, 0x07, 
  0x00, 0xE0, 0x0F, 0x00, 0x00, 0xF0, 0x07, 0x00, 0xE0, 0x1F, 0x00, 0x00, 
  0xF8, 0x07, 0x00, 0xE0, 0x0F, 0x00, 0x00, 0xF8, 0x07, 0x00, 0xE0, 0x1F, 
  0x00, 0x00, 0xF8, 0x07, 0x00, 0xE0, 0x0F, 0x00, 0x00, 0xF8, 0x07, 0x00, 
  0xE0, 0x0F, 0x00, 0x00, 0xF8, 0x07, 0x00, 0xE0, 0x0F, 0x00, 0x00, 0xF8, 
  0x03, 0x00, 0xE0, 0x07, 0x00, 0x00, 0xF8, 0x07, 0x00, 0xF0, 0x07, 0x00, 
  0x00, 0xF8, 0x03, 0x00, 0xF0, 0x03, 0x00, 0x00, 0xF8, 0x03, 0x00, 0xE0, 
  0x01, 0x00, 0x00, 0xF8, 0x03, 0x00, 0xF0, 0x01, 0x00, 0x00, 0xFC, 0x03, 
  0x00, 0xF0, 0x00, 0x00, 0x00, 0xFC, 0x03, 0x00, 0x70, 0x40, 0x92, 0x01, 
  0xFC, 0x03, 0x00, 0x70, 0xF8, 0xFF, 0x0F, 0xF0, 0x03, 0x00, 0x30, 0xFC, 
  0xFF, 0x3F, 0xE0, 0x03, 0x00, 0x10, 0xFC, 0xFF, 0xFF, 0x80, 0x03, 0x00, 
  0x10, 0xFE, 0xFF, 0xFF, 0x01, 0x02, 0x00, 0x00, 0xFF, 0xFF, 0xFF, 0x07, 
  0x00, 0x00, 0x00, 0xFF, 0xFF, 0xFF, 0x0F, 0x00, 0x00, 0x80, 0xFF, 0xFF, 
  0xFF, 0x3F, 0x00, 0x00, 0x00, 0x08, 0x21, 0x22, 0x04, 0x00, 0x00, 0x00, 
  0x00, 0x00, 0x00, 0x00, 0x00, 0x00, 0x00, 0x00, 0x00, 0x00, 0x00, 0x00, 
  0x00, };
