#define dseg-4-50_width 50
#define dseg-4-50_height 67
static char dseg-4-50_bits[] = {
  0x00, 0x00, 0x00, 0x00, 0x00, 0x00, 0x00, 0x00, 0x00, 0x00, 0x00, 0x00, 
  0x00, 0x00, 0x00, 0x00, 0x00, 0x00, 0x00, 0x00, 0x00, 0x00, 0x00, 0x00, 
  0x00, 0x00, 0x00, 0x00, 0x00, 0x00, 0x00, 0x00, 0x00, 0x00, 0x00, 0x00, 
  0x00, 0x00, 0x00, 0x00, 0x40, 0x00, 0x00, 0x02, 0x00, 0x00, 0x00, 0x20, 
  0x00, 0x00, 0x07, 0x00, 0x00, 0x00, 0x20, 0x00, 0x00, 0x0F, 0x00, 0x00, 
  0x00, 0x30, 0x00, 0x00, 0x3F, 0x00, 0x00, 0x00, 0x38, 0x00, 0x00, 0xFF, 
  0x00, 0x00, 0x00, 0x38, 0x00, 0x00, 0xFF, 0x00, 0x00, 0x00, 0x3C, 0x00, 
  0x00, 0x7F, 0x00, 0x00, 0x00, 0x3E, 0x00, 0x00, 0xFF, 0x00, 0x00, 0x00, 
  0x3E, 0x00, 0x80, 0x7F, 0x00, 0x00, 0x00, 0x3F, 0x00, 0x00, 0x7F, 0x00, 
  0x00, 0x80, 0x1F, 0x00, 0x00, 0x7F, 0x00, 0x00, 0x80, 0x3F, 0x00, 0x80, 
  0x7F, 0x00, 0x00, 0xC0, 0x1F, 0x00, 0x80, 0x7F, 0x00, 0x00, 0xC0, 0x1F, 
  0x00, 0x80, 0x7F, 0x00, 0x00, 0xE0, 0x1F, 0x00, 0x80, 0x7F, 0x00, 0x00, 
  0xE0, 0x1F, 0x00, 0x80, 0x7F, 0x00, 0x00, 0xC0, 0x1F, 0x00, 0x80, 0x3F, 
  0x00, 0x00, 0xE0, 0x1F, 0x00, 0x80, 0x7F, 0x00, 0x00, 0xE0, 0x1F, 0x00, 
  0x80, 0x7F, 0x00, 0x00, 0xE0, 0x1F, 0x00, 0x80, 0x3F, 0x00, 0x00, 0xE0, 
  0x1F, 0x00, 0x80, 0x7F, 0x00, 0x00, 0x80, 0x0F, 0x00, 0xC0, 0x3F, 0x00, 
  0x00, 0x00, 0x0E, 0x00, 0xC0, 0x3F, 0x00, 0x00, 0x00, 0x0C, 0x00, 0x80, 
  0x3F, 0x60, 0x45, 0x02, 0x00, 0x00, 0xC0, 0x1F, 0xFC, 0xFF, 0x0F, 0x00, 
  0x00, 0xC0, 0x1F, 0xFE, 0xFF, 0x0F, 0x00, 0x00, 0xC0, 0x0F, 0xFF, 0xFF, 
  0x87, 0x01, 0x00, 0x80, 0x07, 0xFF, 0xFF, 0x83, 0x07, 0x00, 0x00, 0x86, 
  0xFF, 0xFF, 0xC3, 0x0F, 0x00, 0x00, 0xC0, 0xFF, 0xFF, 0xE1, 0x07, 0x00, 
  0x00, 0xC0, 0xFF, 0xFF, 0xF0, 0x0F, 0x00, 0x00, 0x80, 0xA4, 0x12, 0xF0, 
  0x0F, 0x00, 0x00, 0x00, 0x00, 0x00, 0xF0, 0x0F, 0x00, 0x00, 0x00, 0x00, 
  0x00, 0xF0, 0x07, 0x00, 0x00, 0x00, 0x00, 0x00, 0xF8, 0x07, 0x00, 0x00, 
  0x00, 0x00, 0x00, 0xF0, 0x0F, 0x00, 0x00, 0x00, 0x00, 0x00, 0xF8, 0x07, 
  0x00, 0x00, 0x00, 0x00, 0x00, 0xF0, 0x07, 0x00, 0x00, 0x00, 0x00, 0x00, 
  0xF8, 0x07, 0x00, 0x00, 0x00, 0x00, 0x00, 0xF8, 0x07, 0x00, 0x00, 0x00, 
  0x00, 0x00, 0xF8, 0x07, 0x00, 0x00, 0x00, 0x00, 0x00, 0xF8, 0x07, 0x00, 
  0x00, 0x00, 0x00, 0x00, 0xF8, 0x07, 0x00, 0x00, 0x00, 0x00, 0x00, 0xF8, 
  0x03, 0x00, 0x00, 0x00, 0x00, 0x00, 0xF8, 0x07, 0x00, 0x00, 0x00, 0x00, 
  0x00, 0xF8, 0x03, 0x00, 0x00, 0x00, 0x00, 0x00, 0xF8, 0x03, 0x00, 0x00, 
  0x00, 0x00, 0x00, 0xFC, 0x03, 0x00, 0x00, 0x00, 0x00, 0x00, 0xF8, 0x07, 
  0x00, 0x00, 0x00, 0x00, 0x00, 0xFC, 0x03, 0x00, 0x00, 0x00, 0x00, 0x00, 
  0xFC, 0x03, 0x00, 0x00, 0x00, 0x00, 0x00, 0xF0, 0x03, 0x00, 0x00, 0x00, 
  0x00, 0x00, 0xE0, 0x03, 0x00, 0x00, 0x00, 0x00, 0x00, 0x80, 0x03, 0x00, 
  0x00, 0x00, 0x00, 0x00, 0x00, 0x02, 0x00, 0x00, 0x00, 0x00, 0x00, 0x00, 
  0x00, 0x00, 0x00, 0x00, 0x00, 0x00, 0x00, 0x00, 0x00, 0x00, 0x00, 0x00, 
  0x00, 0x00, 0x00, 0x00, 0x00, 0x00, 0x00, 0x00, 0x00, 0x00, 0x00, 0x00, 
  0x00, 0x00, 0x00, 0x00, 0x00, 0x00, 0x00, 0x00, 0x00, 0x00, 0x00, 0x00, 
  0x00, };
